<?xml version="1.0" encoding="UTF-8" standalone="no"?>
<svg
   version="1.1"
   x="0"
   y="0"
   width="95.938"
   height="96"
   viewBox="0, 0, 95.938, 96"
   id="svg21"
   sodipodi:docname="six-sided-dice_too.svg"
   inkscape:version="1.1.1 (3bf5ae0d25, 2021-09-20)"
   xmlns:inkscape="http://www.inkscape.org/namespaces/inkscape"
   xmlns:sodipodi="http://sodipodi.sourceforge.net/DTD/sodipodi-0.dtd"
   xmlns="http://www.w3.org/2000/svg"
   xmlns:svg="http://www.w3.org/2000/svg">
  <defs
     id="defs25" />
  <sodipodi:namedview
     id="namedview23"
     pagecolor="#ffffff"
     bordercolor="#666666"
     borderopacity="1.0"
     inkscape:pageshadow="2"
     inkscape:pageopacity="0.0"
     inkscape:pagecheckerboard="0"
     showgrid="false"
     inkscape:zoom="1.828125"
     inkscape:cx="-58.803419"
     inkscape:cy="59.076923"
     inkscape:window-width="1424"
     inkscape:window-height="978"
     inkscape:window-x="69"
     inkscape:window-y="-6"
     inkscape:window-maximized="1"
     inkscape:current-layer="layer2" />
  <g
     inkscape:groupmode="layer"
     id="layer1"
     inkscape:label="Circle"
     style="display:inline">
    <circle
       style="fill:#1ed760;fill-opacity:1;stroke-width:15.1729;stroke-linejoin:round"
       id="path49"
       cx="48"
       cy="48"
       r="48" />
  </g>
  <g
     inkscape:groupmode="layer"
     id="layer2"
     inkscape:label="Dice"
     style="display:inline">
    <g
       id="Layer_1"
       transform="matrix(0.88598971,0,0,0.88541315,5.4999193,5.5003376)">
      <path
         d="m 54.615614,4.4320394 c -0.23721,-0.00572 -0.493432,0.05623 -0.818464,0.1724988 C 40.372182,8.7349751 26.932726,12.899721 13.539447,17.091153 10.628652,32.655105 7.6046835,48.066571 4.6640107,63.547608 4.5698518,63.992674 4.5861487,64.103225 4.9754613,64.461564 16.496417,75.025914 28.203881,85.486385 39.770104,95.923029 53.281989,90.607021 66.79478,85.305309 80.363704,79.968334 81.068089,79.613807 81.20299,79.550907 81.280852,78.830416 84.712241,63.401795 88.102888,47.926475 91.476333,32.501666 79.696438,23.274419 67.757198,14.173924 55.825201,4.9867036 55.339012,4.6255049 55.008549,4.4425229 54.612897,4.4339456 Z"
         fill="#000000"
         id="path909"
         style="stroke-width:0.9289" />
      <path
         d="m 54.141099,6.8301159 c -0.234259,-0.00565 -0.488188,0.055529 -0.809176,0.1703529 L 17.743358,17.999999 c -0.295953,0.07341 -0.278965,0.157176 -0.03219,0.357647 L 49.302133,44.90541 c 0.582069,0.507294 0.855669,0.570353 1.666635,0.305883 L 86.39371,32.287999 c 0.812754,-0.314353 0.869083,-0.39153 0.03219,-0.971295 L 55.334746,7.3769394 C 54.854604,7.0211747 54.528252,6.8395276 54.137523,6.8319982 Z"
         fill="#ffffff"
         id="path903"
         style="fill:#1ed760;fill-opacity:1;stroke-width:0.917345" />
      <path
         d="m 50.080911,10.047998 c 0.708141,-0.0056 1.456518,0.07718 2.231718,0.256 3.102588,0.715294 5.302117,2.710589 4.901552,4.444236 -0.400564,1.732706 -3.238494,2.554353 -6.341082,1.839059 -3.101695,-0.716236 -5.302118,-2.694589 -4.901553,-4.427295 0.300424,-1.299765 1.983153,-2.100706 4.109365,-2.112 z"
         fill="#000000"
         id="path901"
         style="stroke-width:0.917345" />
      <path
         d="m 30.022275,16.467763 c 0.708142,-0.0056 1.472612,0.07624 2.247812,0.256 3.102588,0.715294 5.286024,2.693647 4.885459,4.426353 -0.400565,1.733647 -3.238494,2.572236 -6.341082,1.856 -3.101694,-0.715294 -5.286024,-2.710588 -4.885459,-4.444235 0.300424,-1.298824 1.967059,-2.082824 4.09327,-2.094118 z"
         fill="#000000"
         id="path899"
         style="stroke-width:0.917345" />
      <path
         d="m 60.41691,18.102587 c 0.708142,-0.0056 1.472613,0.09318 2.247813,0.272 3.102587,0.716235 5.286023,2.694588 4.885458,4.427294 -0.400564,1.732706 -3.239388,2.555294 -6.341082,1.839059 -3.101695,-0.715294 -5.286024,-2.694588 -4.885459,-4.427294 0.300424,-1.299765 1.967059,-2.099765 4.09327,-2.111059 z"
         fill="#000000"
         id="path897"
         style="stroke-width:0.917345" />
      <path
         d="m 15.51164,20.162822 c -0.06437,0.01788 -0.08583,0.124235 -0.128753,0.340706 L 7.3590753,62.748233 c -0.092988,0.439529 -0.076894,0.548706 0.3075764,0.902588 L 38.142652,91.304468 c 0.709035,0.713412 0.858353,0.704 0.954918,-0.169412 l 8.880376,-42.84141 c 0.185977,-0.584471 -0.0053,-0.905412 -0.323671,-1.17553 L 15.834417,20.370822 c -0.163624,-0.145882 -0.2584,-0.222117 -0.322777,-0.204235 z"
         fill="#ffffff"
         id="path895"
         style="fill:#1ed760;fill-opacity:1;stroke-width:0.917345" />
      <path
         d="m 40.262604,24.981646 c 0.709036,-0.0056 1.473507,0.07624 2.248707,0.255058 3.101693,0.716236 5.286024,2.694589 4.885459,4.427295 -0.400566,1.733647 -3.239389,2.555294 -6.341083,1.839058 -3.102588,-0.715294 -5.286023,-2.693647 -4.885458,-4.427294 0.300423,-1.298823 1.966164,-2.082823 4.092375,-2.094117 z"
         fill="#000000"
         id="path893"
         style="stroke-width:0.917345" />
      <path
         d="m 70.982699,26.395293 c 0.708141,-0.0056 1.472611,0.07624 2.248705,0.255059 3.101695,0.716235 5.285131,2.694588 4.884565,4.427294 -0.400565,1.732706 -3.238494,2.572235 -6.341082,1.856 -3.101694,-0.716236 -5.286023,-2.71153 -4.885458,-4.444236 0.301317,-1.299764 1.967058,-2.082823 4.09327,-2.094117 z"
         fill="#000000"
         id="path891"
         style="stroke-width:0.917345" />
      <path
         d="m 17.485852,27.944469 c 0.119812,-0.01224 0.251247,-0.0066 0.372847,0 1.4592,0.08094 3.04,1.521883 3.96273,3.83153 1.230306,3.079529 0.819906,6.535529 -0.905742,7.712941 -1.725647,1.177412 -4.124564,-0.35953 -5.353976,-3.439059 -1.230305,-3.079529 -0.8208,-6.536471 0.905741,-7.713882 0.323671,-0.220236 0.660753,-0.353883 1.019294,-0.39153 z"
         fill="#000000"
         id="path889"
         style="stroke-width:0.917345" />
      <path
         d="m 50.826604,33.495528 c 0.709036,-0.0056 1.472613,0.07624 2.248707,0.255059 3.101693,0.716235 5.286024,2.694588 4.884564,4.427294 -0.400565,1.732706 -3.238494,2.555294 -6.341082,1.839059 -3.101694,-0.715294 -5.285129,-2.693647 -4.884564,-4.427294 0.300423,-1.298824 1.966164,-2.082824 4.092375,-2.094118 z"
         fill="#000000"
         id="path887"
         style="stroke-width:0.917345" />
      <path
         d="m 88.048722,34.670116 c -0.06795,0.01506 -0.163623,0.04047 -0.274493,0.08565 L 51.392581,48.039528 c -0.741223,0.320941 -0.71887,0.452706 -0.841364,1.039059 l -8.864282,42.705881 c -0.0304,0.628706 -0.250354,0.914824 0.452423,0.578824 L 77.987216,78.264468 c 0.695624,-0.350117 0.828848,-0.411294 0.906636,-1.123765 l 9.300612,-42.110116 c 0.07779,-0.296471 0.05901,-0.401883 -0.144848,-0.357647 z"
         fill="#ffffff"
         id="path885"
         style="fill:#1ed760;fill-opacity:1;stroke-width:0.917345" />
      <path
         d="m 82.144864,41.60094 c 1.023765,0.01694 1.827576,0.542117 2.183435,1.549176 0.711717,2.015059 -0.65807,5.240471 -3.073083,7.202823 -2.415012,1.962353 -4.950729,1.913412 -5.661552,-0.102588 -0.711718,-2.015058 0.658071,-5.24047 3.073082,-7.202823 1.207953,-0.980706 2.453458,-1.464471 3.478118,-1.446588 z"
         fill="#000000"
         id="path883"
         style="stroke-width:0.917345" />
      <path
         d="m 38.047875,45.295999 c 1.477977,0.03953 3.090965,1.502117 4.028,3.847529 1.230306,3.08047 0.836,6.53647 -0.889646,7.713881 -1.725648,1.177412 -4.124565,-0.37647 -5.353977,-3.456941 -1.230306,-3.079529 -0.8208,-6.518587 0.905741,-7.695999 0.323671,-0.221176 0.659859,-0.354823 1.019294,-0.391529 0.09656,-0.01129 0.192236,-0.01977 0.290588,-0.01694 z"
         fill="#000000"
         id="path881"
         style="stroke-width:0.917345" />
      <path
         d="m 25.058135,50.233409 c 1.47887,0.04047 3.090964,1.503059 4.028,3.848471 1.230305,3.079529 0.836,6.536471 -0.889648,7.713882 -1.725647,1.177412 -4.12367,-0.377411 -5.353976,-3.456941 -1.230306,-3.079529 -0.819906,-6.518588 0.905741,-7.696 0.323671,-0.221176 0.660753,-0.354823 1.019294,-0.39247 0.09656,-0.01035 0.192235,-0.01882 0.290589,-0.01694 z"
         fill="#000000"
         id="path879"
         style="stroke-width:0.917345" />
      <path
         d="m 12.420676,54.288939 c 0.119811,-0.01318 0.251247,-0.0066 0.372847,0 1.4592,0.08094 3.023906,1.537882 3.946635,3.847529 1.230306,3.080471 0.836,6.51953 -0.889647,7.696941 -1.725647,1.177412 -4.124565,-0.359529 -5.353977,-3.44 -1.2303058,-3.079529 -0.8199058,-6.535529 0.905741,-7.712941 0.323671,-0.221176 0.660753,-0.354823 1.019295,-0.391529 z"
         fill="#000000"
         id="path877"
         style="stroke-width:0.917345" />
      <path
         d="m 68.492581,59.207527 c 1.002306,0.03388 1.801648,0.557176 2.151248,1.549176 0.711717,2.015059 -0.674165,5.240471 -3.089177,7.202824 -2.415012,1.962353 -4.950729,1.912471 -5.661553,-0.102588 -0.711718,-2.015059 0.674165,-5.240471 3.089176,-7.202824 1.056848,-0.858353 2.13426,-1.33647 3.073977,-1.429647 0.151106,-0.01506 0.293271,-0.02165 0.436329,-0.01694 z"
         fill="#000000"
         id="path875"
         style="stroke-width:0.917345" />
      <path
         d="m 32.381852,72.048939 c 0.119812,-0.01318 0.250353,-0.0066 0.371953,0 1.460094,0.08094 3.040894,1.520941 3.963624,3.830588 1.229411,3.079529 0.819906,6.536471 -0.906636,7.713882 -1.725647,1.177412 -4.107576,-0.359529 -5.337882,-3.44 -1.230306,-3.079529 -0.836,-6.535529 0.889647,-7.712941 0.323671,-0.221176 0.660753,-0.354823 1.019294,-0.391529 z"
         fill="#000000"
         id="path873"
         style="stroke-width:0.917345" />
      <path
         d="m 53.675264,77.308233 c 1.024659,0.01694 1.828471,0.524235 2.183435,1.532235 0.711718,2.015059 -0.65807,5.240471 -3.073082,7.202824 -2.415013,1.961411 -4.95073,1.929411 -5.661553,-0.08565 -0.711718,-2.015059 0.658071,-5.240471 3.073082,-7.202824 1.207953,-0.980706 2.453458,-1.46447 3.478118,-1.447529 z"
         fill="#000000"
         id="path3924"
         style="stroke-width:0.917345" />
    </g>
  </g>
</svg>
